<?xml version="1.0" encoding="UTF-8" standalone="no"?>
<!-- Created with Inkscape (http://www.inkscape.org/) -->
<svg
   xmlns:dc="http://purl.org/dc/elements/1.1/"
   xmlns:cc="http://creativecommons.org/ns#"
   xmlns:rdf="http://www.w3.org/1999/02/22-rdf-syntax-ns#"
   xmlns:svg="http://www.w3.org/2000/svg"
   xmlns="http://www.w3.org/2000/svg"
   xmlns:sodipodi="http://sodipodi.sourceforge.net/DTD/sodipodi-0.dtd"
   xmlns:inkscape="http://www.inkscape.org/namespaces/inkscape"
   width="744.09448819"
   height="1052.3622047"
   id="svg4614"
   sodipodi:version="0.32"
   inkscape:version="0.46"
   sodipodi:docname="logo_alt.svg"
   inkscape:output_extension="org.inkscape.output.svg.inkscape">
  <defs
     id="defs4616">
    <inkscape:perspective
       sodipodi:type="inkscape:persp3d"
       inkscape:vp_x="0 : 526.18109 : 1"
       inkscape:vp_y="0 : 1000 : 0"
       inkscape:vp_z="744.09448 : 526.18109 : 1"
       inkscape:persp3d-origin="372.04724 : 350.78739 : 1"
       id="perspective4622" />
  </defs>
  <sodipodi:namedview
     id="base"
     pagecolor="#ffffff"
     bordercolor="#666666"
     borderopacity="1.0"
     gridtolerance="10000"
     guidetolerance="10"
     objecttolerance="10"
     inkscape:pageopacity="0.0"
     inkscape:pageshadow="2"
     inkscape:zoom="2.8"
     inkscape:cx="116.281"
     inkscape:cy="733.90472"
     inkscape:document-units="px"
     inkscape:current-layer="layer1"
     showgrid="false"
     inkscape:window-width="1456"
     inkscape:window-height="833"
     inkscape:window-x="1046"
     inkscape:window-y="135" />
  <metadata
     id="metadata4619">
    <rdf:RDF>
      <cc:Work
         rdf:about="">
        <dc:format>image/svg+xml</dc:format>
        <dc:type
           rdf:resource="http://purl.org/dc/dcmitype/StillImage" />
      </cc:Work>
    </rdf:RDF>
  </metadata>
  <g
     inkscape:label="Layer 1"
     inkscape:groupmode="layer"
     id="layer1">
    <path
       style="font-size:36px;font-style:normal;font-variant:normal;font-weight:normal;font-stretch:normal;text-align:start;line-height:125%;writing-mode:lr-tb;text-anchor:start;fill:#ffffff;fill-opacity:1;stroke:#000000;stroke-width:0.3;stroke-linecap:butt;stroke-linejoin:miter;stroke-opacity:1;font-family:Liberation Serif;-inkscape-font-specification:Liberation Serif;stroke-miterlimit:4;stroke-dasharray:none"
       d="M 35.894253,337.79074 L 35.894253,336.8591 L 38.91769,336.38449 L 38.91769,301.60715 L 35.894253,301.15012 L 35.894253,300.21848 L 45.333706,300.21848 L 45.333706,301.15012 L 42.310268,301.60715 L 42.310268,310.87082 L 53.402065,310.87082 L 53.402065,301.60715 L 50.378628,301.15012 L 50.378628,300.21848 L 59.800503,300.21848 L 59.800503,301.15012 L 56.777065,301.60715 L 56.777065,336.38449 L 59.800503,336.8591 L 59.800503,337.79074 L 50.378628,337.79074 L 50.378628,336.8591 L 53.402065,336.38449 L 53.402065,312.45285 L 42.310268,312.45285 L 42.310268,336.38449 L 45.333706,336.8591 L 45.333706,337.79074 L 35.894253,337.79074"
       id="path4649"
       sodipodi:nodetypes="ccccccccccccccccccccccccccccc" />
    <g
       id="g4660"
       style="fill:#ffffff;fill-opacity:1;stroke:#000000;stroke-opacity:1;stroke-width:0.3;stroke-miterlimit:4;stroke-dasharray:none">
      <path
         id="path4647"
         d="M 60.55368,322.8591 L 63.577117,322.38449 L 63.577117,301.60715 L 60.55368,301.15012 L 60.55368,300.21848 L 78.237274,300.21848 L 78.237274,305.86105 L 77.077117,305.86105 L 76.514617,302.0466 C 76.139601,301.99975 75.68257,301.95873 75.143524,301.92355 C 74.616165,301.88842 74.077103,301.86498 73.526336,301.85324 C 72.975541,301.82983 72.454057,301.81811 71.961883,301.81808 C 71.469683,301.80639 71.088824,301.80053 70.819305,301.80051 L 66.969695,301.80051 L 66.969695,311.01144 L 73.332977,311.01144 L 73.877899,308.19894 L 75.002899,308.19894 L 75.002899,315.44113 L 73.877899,315.44113 L 73.332977,312.59348 L 66.969695,312.59348 L 66.969695,322.20871 L 71.61032,322.20871 C 72.33687,322.20871 73.022416,322.20285 73.666961,322.19113 C 74.311477,322.1677 74.891555,322.14426 75.407195,322.12082 C 75.922804,322.09738 76.362257,322.06809 76.725555,322.03293 C 77.100537,321.99777 77.375928,321.96262 77.551727,321.92746 L 78.55368,317.56808 L 79.713836,317.56808 L 79.379852,323.79074 L 60.55368,323.79074 L 60.55368,322.8591"
         style="font-size:36px;font-style:normal;font-variant:normal;font-weight:normal;font-stretch:normal;text-align:start;line-height:125%;writing-mode:lr-tb;text-anchor:start;fill:#ffffff;fill-opacity:1;stroke:#000000;stroke-width:0.3;stroke-linecap:butt;stroke-linejoin:miter;stroke-opacity:1;font-family:Liberation Serif;-inkscape-font-specification:Liberation Serif;stroke-miterlimit:4;stroke-dasharray:none" />
      <path
         d="M 86.883026,313.4548 L 86.883026,322.38449 L 90.451385,322.8591 L 90.451385,323.79074 L 80.695526,323.79074 L 80.695526,322.8591 L 83.490448,322.38449 L 83.490448,301.60715 L 80.46701,301.15012 L 80.46701,300.21848 L 90.644745,300.21848 C 92.297076,300.2185 93.674027,300.36498 94.775604,300.65793 C 95.888869,300.95092 96.779493,301.37279 97.447479,301.92355 C 98.115429,302.46264 98.590038,303.11889 98.871307,303.8923 C 99.152537,304.66576 99.293162,305.53881 99.293182,306.51144 C 99.293162,307.4138 99.158397,308.2224 98.888885,308.93723 C 98.631054,309.64036 98.279491,310.26146 97.834198,310.80051 C 97.388867,311.33958 96.873243,311.79075 96.287323,312.15402 C 95.701369,312.5056 95.091995,312.77513 94.459198,312.96262 L 100.84006,322.38449 L 103.38889,322.8591 L 103.38889,323.79074 L 97.746307,323.79074 L 91.119354,313.4548 L 86.883026,313.4548 M 95.795135,306.75754 C 95.795119,305.82006 95.683791,305.0349 95.461151,304.40207 C 95.238479,303.76928 94.886917,303.25951 94.406463,302.87277 C 93.937699,302.48607 93.328325,302.21068 92.578338,302.0466 C 91.840045,301.88256 90.943561,301.80053 89.888885,301.80051 L 86.883026,301.80051 L 86.883026,311.87277 L 89.994354,311.87277 C 91.072467,311.87278 91.98067,311.77903 92.718963,311.59152 C 93.457231,311.39232 94.054886,311.08763 94.511932,310.67746 C 94.968948,310.2556 95.297073,309.7224 95.496307,309.07785 C 95.69551,308.43333 95.795119,307.6599 95.795135,306.75754"
         style="font-size:36px;font-style:normal;font-variant:normal;font-weight:normal;font-stretch:normal;text-align:start;line-height:125%;writing-mode:lr-tb;text-anchor:start;fill:#ffffff;fill-opacity:1;stroke:#000000;stroke-width:0.3;stroke-linecap:butt;stroke-linejoin:miter;stroke-opacity:1;font-family:Liberation Serif;-inkscape-font-specification:Liberation Serif;stroke-miterlimit:4;stroke-dasharray:none"
         id="path4645" />
      <path
         d="M 105.8159,311.97824 C 105.81589,313.61888 105.93894,315.1013 106.18504,316.42551 C 106.43113,317.74973 106.853,318.88059 107.45066,319.81808 C 108.04831,320.75559 108.85104,321.48215 109.85887,321.99777 C 110.86667,322.50168 112.13229,322.75363 113.65574,322.75363 C 115.17916,322.75363 116.44479,322.50168 117.45262,321.99777 C 118.46041,321.48215 119.26314,320.75559 119.86082,319.81808 C 120.47017,318.88059 120.89791,317.74973 121.14402,316.42551 C 121.39009,315.1013 121.51314,313.61888 121.51316,311.97824 C 121.51314,310.34935 121.39009,308.87865 121.14402,307.56613 C 120.89791,306.25365 120.47017,305.14037 119.86082,304.22629 C 119.26314,303.30053 118.46041,302.59154 117.45262,302.09933 C 116.44479,301.60717 115.17916,301.36108 113.65574,301.36105 C 112.13229,301.36108 110.86667,301.60717 109.85887,302.09933 C 108.85104,302.59154 108.04831,303.30053 107.45066,304.22629 C 106.853,305.14037 106.43113,306.25365 106.18504,307.56613 C 105.93894,308.87865 105.81589,310.34935 105.8159,311.97824 M 102.14207,311.97824 C 102.14207,309.89232 102.39402,308.09349 102.89793,306.58176 C 103.41355,305.07006 104.15769,303.82201 105.13035,302.83762 C 106.103,301.85326 107.30417,301.1267 108.73387,300.65793 C 110.16354,300.1892 111.80417,299.95483 113.65574,299.9548 C 115.44869,299.95483 117.05416,300.1892 118.47215,300.65793 C 119.90181,301.1267 121.1147,301.85326 122.11082,302.83762 C 123.10689,303.82201 123.86861,305.07006 124.39597,306.58176 C 124.92329,308.09349 125.18697,309.89232 125.18699,311.97824 C 125.18697,314.06419 124.92329,315.87473 124.39597,317.40988 C 123.86861,318.93332 123.10689,320.19309 122.11082,321.18918 C 121.1147,322.18527 119.90181,322.92941 118.47215,323.4216 C 117.05416,323.90207 115.44869,324.1423 113.65574,324.1423 C 111.86276,324.1423 110.25729,323.90207 108.83933,323.4216 C 107.42136,322.92941 106.21433,322.18527 105.21824,321.18918 C 104.22215,320.19309 103.46043,318.93332 102.93309,317.40988 C 102.40574,315.87473 102.14207,314.06419 102.14207,311.97824"
         style="font-size:36px;font-style:normal;font-variant:normal;font-weight:normal;font-stretch:normal;text-align:start;line-height:125%;writing-mode:lr-tb;text-anchor:start;fill:#ffffff;fill-opacity:1;stroke:#000000;stroke-width:0.3;stroke-linecap:butt;stroke-linejoin:miter;stroke-opacity:1;font-family:Liberation Serif;-inkscape-font-specification:Liberation Serif;stroke-miterlimit:4;stroke-dasharray:none"
         id="path4641" />
      <path
         id="path4637"
         d="M 123.94016,322.8591 L 126.9636,322.38449 L 126.9636,301.60715 L 123.94016,301.15012 L 123.94016,300.21848 L 141.62375,300.21848 L 141.62375,305.86105 L 140.4636,305.86105 L 139.9011,302.0466 C 139.52608,301.99975 139.06905,301.95873 138.53,301.92355 C 138.00265,301.88842 137.46358,301.86498 136.91282,301.85324 C 136.36202,301.82983 135.84054,301.81811 135.34836,301.81808 C 134.85616,301.80639 134.4753,301.80053 134.20579,301.80051 L 130.35618,301.80051 L 130.35618,311.01144 L 136.71946,311.01144 L 137.26438,308.19894 L 138.38938,308.19894 L 138.38938,315.44113 L 137.26438,315.44113 L 136.71946,312.59348 L 130.35618,312.59348 L 130.35618,322.20871 L 134.9968,322.20871 C 135.72335,322.20871 136.4089,322.20285 137.05344,322.19113 C 137.69796,322.1677 138.27804,322.14426 138.79368,322.12082 C 139.30928,322.09738 139.74874,322.06809 140.11204,322.03293 C 140.48702,321.99777 140.76241,321.96262 140.93821,321.92746 L 141.94016,317.56808 L 143.10032,317.56808 L 142.76633,323.79074 L 123.94016,323.79074 L 123.94016,322.8591"
         style="font-size:36px;font-style:normal;font-variant:normal;font-weight:normal;font-stretch:normal;text-align:start;line-height:125%;writing-mode:lr-tb;text-anchor:start;fill:#ffffff;fill-opacity:1;stroke:#000000;stroke-width:0.3;stroke-linecap:butt;stroke-linejoin:miter;stroke-opacity:1;font-family:Liberation Serif;-inkscape-font-specification:Liberation Serif;stroke-miterlimit:4;stroke-dasharray:none" />
      <path
         id="path4635"
         d="M 143.88865,317.44504 L 145.03123,317.44504 L 145.64647,320.62668 C 145.86912,320.90793 146.17966,321.17746 146.57811,321.43527 C 146.97654,321.68137 147.41599,321.90402 147.89647,322.10324 C 148.38865,322.29074 148.90427,322.44309 149.44334,322.56027 C 149.98239,322.66574 150.50974,322.71848 151.02537,322.71848 C 151.91599,322.71848 152.68942,322.60129 153.34568,322.36691 C 154.00192,322.12082 154.54098,321.78684 154.96287,321.36496 C 155.39645,320.94309 155.71872,320.44504 155.92967,319.87082 C 156.14059,319.2966 156.24606,318.66965 156.24607,317.98996 C 156.24606,317.14622 156.06442,316.44895 155.70115,315.89816 C 155.34958,315.34739 154.88083,314.8845 154.2949,314.50949 C 153.72067,314.12278 153.06442,313.80052 152.32615,313.54269 C 151.58786,313.27317 150.82614,313.00364 150.041,312.7341 C 149.26755,312.46458 148.51169,312.16575 147.77342,311.83762 C 147.03513,311.5095 146.37302,311.09349 145.78709,310.58957 C 145.21287,310.08568 144.74412,309.46458 144.38084,308.72629 C 144.02928,307.9763 143.85349,307.05638 143.8535,305.96652 C 143.85349,305.05248 144.02928,304.22631 144.38084,303.48801 C 144.7324,302.73803 145.24802,302.10522 145.92772,301.58957 C 146.6074,301.06225 147.43943,300.65795 148.42381,300.37668 C 149.41989,300.09545 150.55075,299.95483 151.81639,299.9548 C 152.97653,299.95483 154.07809,300.031 155.12107,300.18332 C 156.16403,300.33569 157.12497,300.51147 158.00389,300.71066 L 158.00389,305.61496 L 156.86131,305.61496 L 156.24607,302.73215 C 155.73044,302.35717 155.09762,302.04662 154.34764,301.80051 C 153.59762,301.55444 152.75388,301.43139 151.81639,301.43137 C 150.94919,301.43139 150.19919,301.52514 149.56639,301.71262 C 148.94529,301.90014 148.42966,302.15795 148.01951,302.48605 C 147.60935,302.80248 147.30466,303.18334 147.10545,303.62863 C 146.90623,304.06225 146.80662,304.53099 146.80662,305.03488 C 146.80662,305.79662 146.9824,306.42943 147.33397,306.93332 C 147.69724,307.43724 148.16599,307.87084 148.74022,308.2341 C 149.32614,308.58568 149.98825,308.89037 150.72654,309.14816 C 151.47653,309.40599 152.23825,309.67552 153.0117,309.95676 C 153.79684,310.2263 154.55856,310.53685 155.29686,310.8884 C 156.04684,311.22825 156.70895,311.66771 157.28318,312.20676 C 157.86911,312.73411 158.33785,313.3845 158.68943,314.15793 C 159.0527,314.91966 159.23434,315.86301 159.23436,316.98801 C 159.23434,318.07786 159.06442,319.06223 158.72459,319.94113 C 158.39645,320.82004 157.89254,321.5759 157.21287,322.20871 C 156.54489,322.8298 155.70114,323.31027 154.68162,323.65012 C 153.6738,323.97824 152.48434,324.1423 151.11326,324.1423 C 150.38669,324.1423 149.67185,324.10715 148.96873,324.03683 C 148.2656,323.96652 147.60349,323.87277 146.9824,323.75558 C 146.3613,323.6384 145.78709,323.50363 145.25975,323.35129 C 144.7324,323.19894 144.27537,323.0466 143.88865,322.89426 L 143.88865,317.44504"
         style="font-size:36px;font-style:normal;font-variant:normal;font-weight:normal;font-stretch:normal;text-align:start;line-height:125%;writing-mode:lr-tb;text-anchor:start;fill:#ffffff;fill-opacity:1;stroke:#000000;stroke-width:0.3;stroke-linecap:butt;stroke-linejoin:miter;stroke-opacity:1;font-family:Liberation Serif;-inkscape-font-specification:Liberation Serif;stroke-miterlimit:4;stroke-dasharray:none" />
    </g>
    <path
       id="path4633"
       style="font-size:36px;font-style:normal;font-variant:normal;font-weight:normal;font-stretch:normal;text-align:start;line-height:125%;writing-mode:lr-tb;text-anchor:start;fill:#ffffff;fill-opacity:1;stroke:#000000;stroke-width:0.3;stroke-linecap:butt;stroke-linejoin:miter;stroke-opacity:1;font-family:Liberation Serif;-inkscape-font-specification:Liberation Serif;stroke-miterlimit:4;stroke-dasharray:none"
       d="M 166.38596,336.38449 L 169.4094,336.8591 L 169.4094,337.79074 L 159.98753,337.79074 L 159.98753,336.8591 L 163.01096,336.38449 L 163.01096,301.60715 L 159.98753,301.15012 L 159.98753,300.21848 L 169.4094,300.21848 L 169.4094,301.15012 L 166.38596,301.60715 L 166.38596,336.38449 M 176.56102,336.38449 L 179.58446,336.8591 L 179.58446,337.79074 L 170.16258,337.79074 L 170.16258,336.8591 L 173.18602,336.38449 L 173.18602,301.60715 L 170.16258,301.15012 L 170.16258,300.21848 L 179.58446,300.21848 L 179.58446,301.15012 L 176.56102,301.60715 L 176.56102,336.38449 M 186.73607,336.38449 L 189.75951,336.8591 L 189.75951,337.79074 L 180.33763,337.79074 L 180.33763,336.8591 L 183.36107,336.38449 L 183.36107,301.60715 L 180.33763,301.15012 L 180.33763,300.21848 L 189.75951,300.21848 L 189.75951,301.15012 L 186.73607,301.60715 L 186.73607,336.38449"
       sodipodi:nodetypes="ccccccccccccccccccccccccccccccccccccccc" />
    <path
       style="font-size:20px;font-style:normal;font-variant:normal;font-weight:normal;font-stretch:normal;text-align:start;line-height:125%;writing-mode:lr-tb;text-anchor:start;fill:#ffffff;fill-opacity:1;stroke:#000000;stroke-width:0.3;stroke-linecap:butt;stroke-linejoin:miter;stroke-opacity:1;font-family:Liberation Serif;-inkscape-font-specification:Liberation Serif;stroke-miterlimit:4;stroke-dasharray:none"
       d="M 63.39277,331.75289 L 63.39277,335.85679 L 64.819577,336.07491 L 64.819577,336.50307 L 60.918702,336.50307 L 60.918702,336.07491 L 62.036249,335.85679 L 62.036249,326.30795 L 60.82733,326.09791 L 60.82733,325.66975 L 64.896891,325.66975 C 65.557575,325.66976 66.108149,325.73708 66.548614,325.87171 C 66.993752,326.00636 67.349868,326.20025 67.616962,326.45337 C 67.884041,326.70112 68.073813,327.00271 68.186278,327.35816 C 68.298728,327.71363 68.354957,328.11486 68.354965,328.56187 C 68.354957,328.97657 68.301071,329.34818 68.193307,329.67671 C 68.090213,329.99985 67.949641,330.28529 67.771591,330.53303 C 67.593526,330.78078 67.387354,330.98813 67.153073,331.15507 C 66.918781,331.31665 66.675122,331.44052 66.422098,331.52669 L 68.973482,335.85679 L 69.99263,336.07491 L 69.99263,336.50307 L 67.736448,336.50307 L 65.086664,331.75289 L 63.39277,331.75289 M 66.956273,328.67497 C 66.956267,328.24411 66.911752,327.88328 66.822729,327.59244 C 66.733694,327.30162 66.593122,327.06734 66.401013,326.8896 C 66.213578,326.71189 65.96992,326.58533 65.670038,326.50992 C 65.374832,326.43453 65.016373,326.39682 64.594662,326.39681 L 63.39277,326.39681 L 63.39277,331.02582 L 64.636833,331.02582 C 65.067916,331.02582 65.431061,330.98274 65.726267,330.89656 C 66.021463,330.80501 66.260435,330.66498 66.443184,330.47648 C 66.625923,330.2826 66.757122,330.03755 66.836786,329.74133 C 66.916437,329.44513 66.956267,329.08967 66.956273,328.67497 M 70.44246,336.07491 L 71.65138,335.85679 L 71.65138,326.30795 L 70.44246,326.09791 L 70.44246,325.66975 L 77.513236,325.66975 L 77.513236,328.26296 L 77.049348,328.26296 L 76.824433,326.50992 C 76.674483,326.48838 76.491739,326.46953 76.276202,326.45337 C 76.065338,326.43722 75.849795,326.42645 75.62957,326.42105 C 75.409336,326.41029 75.200821,326.40491 75.004025,326.4049 C 74.807219,326.39952 74.654933,326.39682 74.547165,326.39681 L 73.007901,326.39681 L 73.007901,330.62997 L 75.552256,330.62997 L 75.770143,329.33741 L 76.219974,329.33741 L 76.219974,332.66577 L 75.770143,332.66577 L 75.552256,331.35704 L 73.007901,331.35704 L 73.007901,335.776 L 74.863453,335.776 C 75.153963,335.776 75.428079,335.77331 75.685799,335.76793 C 75.943509,335.75715 76.175452,335.74638 76.381631,335.73561 C 76.587796,335.72483 76.763512,335.71138 76.908777,335.69522 C 77.058713,335.67906 77.168828,335.6629 77.239121,335.64674 L 77.639751,333.64327 L 78.103639,333.64327 L 77.970096,336.50307 L 70.44246,336.50307 L 70.44246,336.07491 M 86.945623,326.30795 L 85.680474,326.09791 L 85.680474,325.66975 L 88.892545,325.66975 L 88.892545,326.09791 L 87.683627,326.30795 L 87.683627,336.50307 L 87.001852,336.50307 L 81.189197,326.76035 L 81.189197,335.85679 L 82.454345,336.07491 L 82.454345,336.50307 L 79.242273,336.50307 L 79.242273,336.07491 L 80.451193,335.85679 L 80.451193,326.30795 L 79.242273,326.09791 L 79.242273,325.66975 L 82.095886,325.66975 L 86.945623,333.69174 L 86.945623,326.30795 M 92.47011,336.07491 L 92.47011,336.50307 L 89.370495,336.50307 L 89.370495,336.07491 L 90.43884,335.85679 L 93.650911,325.58088 L 94.986347,325.58088 L 98.324935,335.85679 L 99.519801,336.07491 L 99.519801,336.50307 L 95.534579,336.50307 L 95.534579,336.07491 L 96.799726,335.85679 L 95.86492,332.73039 L 92.153817,332.73039 L 91.204956,335.85679 L 92.47011,336.07491 M 93.981252,326.74419 L 92.364676,332.00333 L 95.647037,332.00333 L 93.981252,326.74419 M 102.71078,335.85679 L 103.91971,336.07491 L 103.91971,336.50307 L 100.15237,336.50307 L 100.15237,336.07491 L 101.36129,335.85679 L 101.36129,326.30795 L 100.15237,326.09791 L 100.15237,325.66975 L 103.91971,325.66975 L 103.91971,326.09791 L 102.71078,326.30795 L 102.71078,335.85679 M 105.41679,333.58672 L 105.87366,333.58672 L 106.11966,335.04894 C 106.20868,335.17819 106.33286,335.30206 106.49218,335.42054 C 106.65149,335.53364 106.8272,335.63597 107.01932,335.72753 C 107.21612,335.81371 107.42229,335.88371 107.63783,335.93757 C 107.85337,335.98604 108.06424,336.01028 108.27041,336.01028 C 108.62653,336.01028 108.93578,335.95642 109.19818,335.84871 C 109.46059,335.73561 109.67613,335.58212 109.84482,335.38823 C 110.01819,335.19435 110.14704,334.96546 110.23139,334.70155 C 110.31573,334.43766 110.3579,334.14952 110.35791,333.83715 C 110.3579,333.44939 110.28527,333.12894 110.14002,332.8758 C 109.99945,332.62268 109.81202,332.40995 109.57773,332.2376 C 109.34812,332.05988 109.08573,331.91177 108.79053,331.79328 C 108.49532,331.66942 108.19075,331.54555 107.87681,331.42167 C 107.56754,331.2978 107.26531,331.16047 106.97012,331.00966 C 106.67491,330.85887 106.41017,330.66768 106.17589,330.43608 C 105.94629,330.2045 105.75886,329.91906 105.61359,329.57976 C 105.47303,329.23508 105.40273,328.81231 105.40274,328.31143 C 105.40273,327.89135 105.47303,327.51166 105.61359,327.17235 C 105.75418,326.82768 105.96034,326.53685 106.23212,326.29987 C 106.50388,326.05753 106.83657,325.87172 107.23018,325.74246 C 107.62847,325.61321 108.08064,325.54858 108.58669,325.54857 C 109.05059,325.54858 109.49104,325.58359 109.90807,325.65359 C 110.3251,325.72361 110.70933,325.8044 111.06077,325.89594 L 111.06077,328.14986 L 110.6039,328.14986 L 110.35791,326.82498 C 110.15172,326.65265 109.8987,326.50992 109.59881,326.39681 C 109.29892,326.28372 108.96155,326.22718 108.58669,326.22716 C 108.23996,326.22718 107.94006,326.27026 107.68703,326.35642 C 107.43869,326.4426 107.23252,326.56109 107.06852,326.71188 C 106.90451,326.8573 106.78268,327.03234 106.70303,327.23699 C 106.62338,327.43626 106.58354,327.65169 106.58354,327.88327 C 106.58354,328.23334 106.65382,328.52418 106.79441,328.75575 C 106.93965,328.98734 107.12709,329.18662 107.35669,329.35356 C 107.59098,329.51514 107.85572,329.65517 108.15092,329.77364 C 108.45081,329.89214 108.75538,330.01601 109.06465,330.14526 C 109.37858,330.26914 109.68316,330.41185 109.97837,330.57342 C 110.27825,330.72961 110.54298,330.93158 110.77259,331.17931 C 111.00687,331.42168 111.1943,331.72058 111.33488,332.07603 C 111.48013,332.42611 111.55276,332.85966 111.55277,333.37667 C 111.55276,333.87754 111.48482,334.32995 111.34894,334.73387 C 111.21773,335.1378 111.01625,335.48517 110.74448,335.776 C 110.47739,336.06144 110.14001,336.28226 109.73236,336.43844 C 109.32938,336.58924 108.85378,336.66464 108.30555,336.66464 C 108.01504,336.66464 107.72921,336.64848 107.44806,336.61617 C 107.16692,336.58385 106.90218,336.54077 106.65383,336.48692 C 106.40549,336.43305 106.17589,336.37112 105.96503,336.30111 C 105.75418,336.23109 105.57143,336.16108 105.41679,336.09106 L 105.41679,333.58672 M 113.4294,333.58672 L 113.88627,333.58672 L 114.13226,335.04894 C 114.22129,335.17819 114.34547,335.30206 114.50479,335.42054 C 114.66409,335.53364 114.83981,335.63597 115.03192,335.72753 C 115.22873,335.81371 115.43489,335.88371 115.65045,335.93757 C 115.86598,335.98604 116.07685,336.01028 116.28302,336.01028 C 116.63913,336.01028 116.94839,335.95642 117.2108,335.84871 C 117.47319,335.73561 117.68873,335.58212 117.85742,335.38823 C 118.03079,335.19435 118.15965,334.96546 118.244,334.70155 C 118.32833,334.43766 118.37051,334.14952 118.37051,333.83715 C 118.37051,333.44939 118.29787,333.12894 118.15263,332.8758 C 118.01205,332.62268 117.82461,332.40995 117.59034,332.2376 C 117.36073,332.05988 117.09833,331.91177 116.80314,331.79328 C 116.50793,331.66942 116.20336,331.54555 115.88942,331.42167 C 115.58016,331.2978 115.27792,331.16047 114.98272,331.00966 C 114.68752,330.85887 114.42278,330.66768 114.1885,330.43608 C 113.95888,330.2045 113.77147,329.91906 113.62621,329.57976 C 113.48563,329.23508 113.41535,328.81231 113.41535,328.31143 C 113.41535,327.89135 113.48563,327.51166 113.62621,327.17235 C 113.76678,326.82768 113.97296,326.53685 114.24472,326.29987 C 114.51649,326.05753 114.84918,325.87172 115.24279,325.74246 C 115.64106,325.61321 116.09324,325.54858 116.59931,325.54857 C 117.06318,325.54858 117.50365,325.58359 117.92068,325.65359 C 118.33771,325.72361 118.72195,325.8044 119.07338,325.89594 L 119.07338,328.14986 L 118.61651,328.14986 L 118.37051,326.82498 C 118.16434,326.65265 117.91131,326.50992 117.61143,326.39681 C 117.31153,326.28372 116.97416,326.22718 116.59931,326.22716 C 116.25255,326.22718 115.95267,326.27026 115.69964,326.35642 C 115.4513,326.4426 115.24512,326.56109 115.08112,326.71188 C 114.91712,326.8573 114.79529,327.03234 114.71564,327.23699 C 114.63598,327.43626 114.59615,327.65169 114.59615,327.88327 C 114.59615,328.23334 114.66644,328.52418 114.80701,328.75575 C 114.95226,328.98734 115.1397,329.18662 115.3693,329.35356 C 115.60359,329.51514 115.86833,329.65517 116.16354,329.77364 C 116.46342,329.89214 116.76799,330.01601 117.07725,330.14526 C 117.39119,330.26914 117.69576,330.41185 117.99097,330.57342 C 118.29086,330.72961 118.5556,330.93158 118.78521,331.17931 C 119.01948,331.42168 119.20691,331.72058 119.34749,332.07603 C 119.49274,332.42611 119.56537,332.85966 119.56538,333.37667 C 119.56537,333.87754 119.49743,334.32995 119.36154,334.73387 C 119.23035,335.1378 119.02886,335.48517 118.75709,335.776 C 118.49,336.06144 118.15262,336.28226 117.74496,336.43844 C 117.34199,336.58924 116.86639,336.66464 116.31816,336.66464 C 116.02765,336.66464 115.74181,336.64848 115.46067,336.61617 C 115.17953,336.58385 114.91478,336.54077 114.66644,336.48692 C 114.41809,336.43305 114.18848,336.37112 113.97764,336.30111 C 113.76678,336.23109 113.58404,336.16108 113.4294,336.09106 L 113.4294,333.58672 M 123.70522,336.07491 L 123.70522,336.50307 L 120.6056,336.50307 L 120.6056,336.07491 L 121.67396,335.85679 L 124.88604,325.58088 L 126.22147,325.58088 L 129.56005,335.85679 L 130.75492,336.07491 L 130.75492,336.50307 L 126.7697,336.50307 L 126.7697,336.07491 L 128.03484,335.85679 L 127.10004,332.73039 L 123.38894,332.73039 L 122.44008,335.85679 L 123.70522,336.07491 M 125.21638,326.74419 L 123.5998,332.00333 L 126.88216,332.00333 L 125.21638,326.74419 M 138.98541,326.30795 L 137.72026,326.09791 L 137.72026,325.66975 L 140.93233,325.66975 L 140.93233,326.09791 L 139.72341,326.30795 L 139.72341,336.50307 L 139.04164,336.50307 L 133.22898,326.76035 L 133.22898,335.85679 L 134.49413,336.07491 L 134.49413,336.50307 L 131.28206,336.50307 L 131.28206,336.07491 L 132.49098,335.85679 L 132.49098,326.30795 L 131.28206,326.09791 L 131.28206,325.66975 L 134.13567,325.66975 L 138.98541,333.69174 L 138.98541,326.30795 M 146.70985,336.66464 C 145.94138,336.66464 145.25491,336.54077 144.65046,336.29303 C 144.05069,336.04528 143.54229,335.68714 143.12526,335.21858 C 142.71291,334.75003 142.39897,334.17915 142.18343,333.50593 C 141.96788,332.82733 141.86011,332.06257 141.86011,331.21162 C 141.86011,330.24221 141.96788,329.40204 142.18343,328.69112 C 142.40365,327.98021 142.71994,327.39318 143.13229,326.93 C 143.54931,326.46146 144.06006,326.11408 144.66452,325.88787 C 145.26898,325.66168 145.96012,325.54858 146.73796,325.54857 C 147.06127,325.54858 147.36584,325.56204 147.65168,325.58896 C 147.9375,325.61051 148.20928,325.64014 148.46699,325.67783 C 148.72939,325.71554 148.97773,325.75862 149.21204,325.80708 C 149.44631,325.85557 149.67356,325.90673 149.89381,325.96058 L 149.93598,328.32759 L 149.47208,328.32759 L 149.26124,326.92192 C 148.93322,326.69035 148.55133,326.51262 148.11557,326.38874 C 147.68447,326.25949 147.24401,326.19486 146.79419,326.19485 C 146.24595,326.19486 145.7563,326.28103 145.32522,326.45337 C 144.8988,326.62572 144.538,326.90846 144.2428,327.30161 C 143.9476,327.68939 143.72034,328.20373 143.56103,328.84462 C 143.40641,329.48013 143.32908,330.26375 143.32908,331.19547 C 143.32908,332.0141 143.40641,332.7277 143.56103,333.33628 C 143.71566,333.93948 143.93824,334.44305 144.22875,334.84697 C 144.51926,335.24551 144.87303,335.54442 145.29007,335.74369 C 145.71178,335.94296 146.18972,336.04259 146.72391,336.04259 C 147.01441,336.04259 147.29087,336.02105 147.55328,335.97796 C 147.82035,335.93488 148.06636,335.87564 148.29129,335.80024 C 148.52088,335.72483 148.7247,335.63867 148.90278,335.54172 C 149.0855,335.43939 149.23779,335.33438 149.35963,335.22666 L 149.61969,333.61095 L 150.07655,333.61095 L 150.03437,336.1557 C 149.83756,336.22032 149.61266,336.28495 149.35963,336.34958 C 149.10659,336.40882 148.83716,336.46268 148.55134,336.51115 C 148.2655,336.55962 147.96562,336.59732 147.65168,336.62425 C 147.33772,336.65117 147.02378,336.66464 146.70985,336.66464 M 151.29953,336.07491 L 152.50844,335.85679 L 152.50844,326.30795 L 151.29953,326.09791 L 151.29953,325.66975 L 158.37031,325.66975 L 158.37031,328.26296 L 157.90641,328.26296 L 157.6815,326.50992 C 157.53154,326.48838 157.34881,326.46953 157.13327,326.45337 C 156.9224,326.43722 156.70686,326.42645 156.48664,326.42105 C 156.2664,326.41029 156.05789,326.40491 155.86109,326.4049 C 155.66428,326.39952 155.512,326.39682 155.40423,326.39681 L 153.86497,326.39681 L 153.86497,330.62997 L 156.40933,330.62997 L 156.6272,329.33741 L 157.07704,329.33741 L 157.07704,332.66577 L 156.6272,332.66577 L 156.40933,331.35704 L 153.86497,331.35704 L 153.86497,335.776 L 155.72052,335.776 C 156.01102,335.776 156.28514,335.77331 156.54286,335.76793 C 156.80057,335.75715 157.03251,335.74638 157.23869,335.73561 C 157.44487,335.72483 157.62058,335.71138 157.76584,335.69522 C 157.91578,335.67906 158.02589,335.6629 158.09619,335.64674 L 158.49682,333.64327 L 158.96071,333.64327 L 158.82716,336.50307 L 151.29953,336.50307 L 151.29953,336.07491"
       id="text4653" />
  </g>
</svg>
